<svg width="20" height="20" viewBox="0 0 20 20" fill="none" xmlns="http://www.w3.org/2000/svg">
<g id="chevron_right">
<mask id="mask0_1_10473" style="mask-type:alpha" maskUnits="userSpaceOnUse" x="0" y="0" width="20" height="20">
<rect id="Bounding box" x="20" width="20" height="20" transform="rotate(90 20 0)" fill="#D9D9D9"/>
</mask>
<g mask="url(#mask0_1_10473)">
<path id="chevron_right_2" d="M10.0001 10.7886L13.3942 7.39418C13.5097 7.2789 13.6547 7.21987 13.8294 7.21709C14.004 7.21445 14.1517 7.27348 14.2726 7.39418C14.3933 7.51501 14.4536 7.6614 14.4536 7.83334C14.4536 8.00529 14.3933 8.15168 14.2726 8.27251L10.5274 12.0177C10.4493 12.0956 10.367 12.1506 10.2805 12.1827C10.194 12.2148 10.1005 12.2308 10.0001 12.2308C9.89965 12.2308 9.80618 12.2148 9.71965 12.1827C9.63313 12.1506 9.55083 12.0956 9.47278 12.0177L5.72757 8.27251C5.61229 8.15709 5.55327 8.01202 5.55049 7.8373C5.54785 7.66272 5.60688 7.51501 5.72757 7.39418C5.8484 7.27348 5.99479 7.21313 6.16674 7.21313C6.33868 7.21313 6.48507 7.27348 6.6059 7.39418L10.0001 10.7886Z" fill="#1C1B1F"/>
</g>
</g>
</svg>
